<?xml version="1.0" encoding="UTF-8" standalone="no"?>
<!DOCTYPE svg PUBLIC "-//W3C//DTD SVG 1.1//EN" "http://www.w3.org/Graphics/SVG/1.1/DTD/svg11.dtd">
<svg version="1.1" xmlns="http://www.w3.org/2000/svg" xmlns:xlink="http://www.w3.org/1999/xlink" preserveAspectRatio="xMidYMid meet" viewBox="0 0 640 640" width="640" height="640"><defs><path d="M358.34 185.64C358.34 205.54 342.18 221.7 322.28 221.7C302.38 221.7 286.22 205.54 286.22 185.64C286.22 165.73 302.38 149.58 322.28 149.58C342.18 149.58 358.34 165.73 358.34 185.64Z" id="f371SW2sF2"></path><path d="M315.15 257.16C315.15 273.05 302.24 285.95 286.35 285.95C270.46 285.95 257.55 273.05 257.55 257.16C257.55 241.26 270.46 228.36 286.35 228.36C302.24 228.36 315.15 241.26 315.15 257.16Z" id="b87ROnEAQK"></path><path d="M273.66 315.11C273.66 327.9 263.28 338.28 250.5 338.28C237.71 338.28 227.33 327.9 227.33 315.11C227.33 302.33 237.71 291.95 250.5 291.95C263.28 291.95 273.66 302.33 273.66 315.11Z" id="b1LN1HZXTR"></path><path d="M345.45 315.11C345.45 327.9 335.07 338.28 322.28 338.28C309.49 338.28 299.11 327.9 299.11 315.11C299.11 302.33 309.49 291.95 322.28 291.95C335.07 291.95 345.45 302.33 345.45 315.11Z" id="lEGeZZwVr"></path><path d="M416.62 315.11C416.62 327.9 406.24 338.28 393.45 338.28C380.67 338.28 370.28 327.9 370.28 315.11C370.28 302.33 380.67 291.95 393.45 291.95C406.24 291.95 416.62 302.33 416.62 315.11Z" id="fAJ4gSYvi"></path><path d="M233.21 361.02C233.21 371.37 224.81 379.77 214.46 379.77C204.11 379.77 195.71 371.37 195.71 361.02C195.71 350.67 204.11 342.27 214.46 342.27C224.81 342.27 233.21 350.67 233.21 361.02Z" id="irq5YY1KR"></path><path d="M304.97 361.02C304.97 371.37 296.56 379.77 286.22 379.77C275.87 379.77 267.47 371.37 267.47 361.02C267.47 350.67 275.87 342.27 286.22 342.27C296.56 342.27 304.97 350.67 304.97 361.02Z" id="bTQgIPu4N"></path><path d="M448.11 361.02C448.11 371.37 439.71 379.77 429.36 379.77C419.01 379.77 410.61 371.37 410.61 361.02C410.61 350.67 419.01 342.27 429.36 342.27C439.71 342.27 448.11 350.67 448.11 361.02Z" id="e2QghZyJQL"></path><path d="M194.02 397.41C194.02 405.66 187.31 412.36 179.06 412.36C170.8 412.36 164.1 405.66 164.1 397.41C164.1 389.15 170.8 382.45 179.06 382.45C187.31 382.45 194.02 389.15 194.02 397.41Z" id="d1vQTLYJ3F"></path><path d="M265.45 397.41C265.45 405.66 258.75 412.36 250.5 412.36C242.24 412.36 235.54 405.66 235.54 397.41C235.54 389.15 242.24 382.45 250.5 382.45C258.75 382.45 265.45 389.15 265.45 397.41Z" id="b1ahtI0ew"></path><path d="M337.24 397.41C337.24 405.66 330.54 412.36 322.28 412.36C314.02 412.36 307.32 405.66 307.32 397.41C307.32 389.15 314.02 382.45 322.28 382.45C330.54 382.45 337.24 389.15 337.24 397.41Z" id="c4mNH6JG0m"></path><path d="M408.41 397.41C408.41 405.66 401.71 412.36 393.45 412.36C385.2 412.36 378.49 405.66 378.49 397.41C378.49 389.15 385.2 382.45 393.45 382.45C401.71 382.45 408.41 389.15 408.41 397.41Z" id="d6fnefMdSi"></path><path d="M480.15 397.41C480.15 405.66 473.45 412.36 465.2 412.36C456.94 412.36 450.24 405.66 450.24 397.41C450.24 389.15 456.94 382.45 465.2 382.45C473.45 382.45 480.15 389.15 480.15 397.41Z" id="b1Y5bnQh9t"></path><path d="M155.04 426.78C155.04 433.45 149.63 438.86 142.96 438.86C136.29 438.86 130.87 433.45 130.87 426.78C130.87 420.11 136.29 414.69 142.96 414.69C149.63 414.69 155.04 420.11 155.04 426.78Z" id="aCh6ZPblp"></path><path d="M226.55 426.78C226.55 433.45 221.13 438.86 214.46 438.86C207.79 438.86 202.38 433.45 202.38 426.78C202.38 420.11 207.79 414.69 214.46 414.69C221.13 414.69 226.55 420.11 226.55 426.78Z" id="b4Af7kovc"></path><path d="M298.3 426.78C298.3 433.45 292.89 438.86 286.22 438.86C279.55 438.86 274.13 433.45 274.13 426.78C274.13 420.11 279.55 414.69 286.22 414.69C292.89 414.69 298.3 420.11 298.3 426.78Z" id="a4OEhnQYxL"></path><path d="M441.45 426.78C441.45 433.45 436.03 438.86 429.36 438.86C422.69 438.86 417.28 433.45 417.28 426.78C417.28 420.11 422.69 414.69 429.36 414.69C436.03 414.69 441.45 420.11 441.45 426.78Z" id="b2FHx0Dcq3"></path><path d="M512.95 426.78C512.95 433.45 507.53 438.86 500.86 438.86C494.19 438.86 488.78 433.45 488.78 426.78C488.78 420.11 494.19 414.69 500.86 414.69C507.53 414.69 512.95 420.11 512.95 426.78Z" id="a2P6qCPmJC"></path><path d="M117.26 450.25C117.26 455.6 112.91 459.95 107.56 459.95C102.2 459.95 97.86 455.6 97.86 450.25C97.86 444.89 102.2 440.55 107.56 440.55C112.91 440.55 117.26 444.89 117.26 450.25Z" id="a3zP4pl4Cs"></path><path d="M188.76 450.25C188.76 455.6 184.41 459.95 179.06 459.95C173.71 459.95 169.36 455.6 169.36 450.25C169.36 444.89 173.71 440.55 179.06 440.55C184.41 440.55 188.76 444.89 188.76 450.25Z" id="e36iroOyxV"></path><path d="M260.2 450.25C260.2 455.6 255.85 459.95 250.5 459.95C245.14 459.95 240.8 455.6 240.8 450.25C240.8 444.89 245.14 440.55 250.5 440.55C255.85 440.55 260.2 444.89 260.2 450.25Z" id="b1oDM2TsaU"></path><path d="M331.98 450.25C331.98 455.6 327.63 459.95 322.28 459.95C316.93 459.95 312.58 455.6 312.58 450.25C312.58 444.89 316.93 440.55 322.28 440.55C327.63 440.55 331.98 444.89 331.98 450.25Z" id="f4V2K2Vseu"></path><path d="M403.15 450.25C403.15 455.6 398.8 459.95 393.45 459.95C388.1 459.95 383.75 455.6 383.75 450.25C383.75 444.89 388.1 440.55 393.45 440.55C398.8 440.55 403.15 444.89 403.15 450.25Z" id="aqrkN6uEQ"></path><path d="M474.9 450.25C474.9 455.6 470.55 459.95 465.2 459.95C459.84 459.95 455.5 455.6 455.5 450.25C455.5 444.89 459.84 440.55 465.2 440.55C470.55 440.55 474.9 444.89 474.9 450.25Z" id="a1eKt2REVl"></path><path d="M546.4 450.25C546.4 455.6 542.05 459.95 536.7 459.95C531.34 459.95 527 455.6 527 450.25C527 444.89 531.34 440.55 536.7 440.55C542.05 440.55 546.4 444.89 546.4 450.25Z" id="a6M9594Jp"></path><path d="M79.55 469.08C79.55 473.56 75.91 477.2 71.43 477.2C66.95 477.2 63.32 473.56 63.32 469.08C63.32 464.6 66.95 460.96 71.43 460.96C75.91 460.96 79.55 464.6 79.55 469.08Z" id="b5EzWhPnY2"></path><path d="M151.07 469.08C151.07 473.56 147.44 477.2 142.96 477.2C138.48 477.2 134.84 473.56 134.84 469.08C134.84 464.6 138.48 460.96 142.96 460.96C147.44 460.96 151.07 464.6 151.07 469.08Z" id="biSRcmL2u"></path><path d="M222.58 469.08C222.58 473.56 218.94 477.2 214.46 477.2C209.98 477.2 206.35 473.56 206.35 469.08C206.35 464.6 209.98 460.96 214.46 460.96C218.94 460.96 222.58 464.6 222.58 469.08Z" id="a27L4teNaO"></path><path d="M294.33 469.08C294.33 473.56 290.7 477.2 286.22 477.2C281.74 477.2 278.1 473.56 278.1 469.08C278.1 464.6 281.74 460.96 286.22 460.96C290.7 460.96 294.33 464.6 294.33 469.08Z" id="b4ExgWuhbH"></path><path d="M365.79 469.08C365.79 473.56 362.16 477.2 357.68 477.2C353.2 477.2 349.56 473.56 349.56 469.08C349.56 464.6 353.2 460.96 357.68 460.96C362.16 460.96 365.79 464.6 365.79 469.08Z" id="atE1ESyuh"></path><path d="M369.76 426.78C369.76 433.45 364.34 438.86 357.68 438.86C351.01 438.86 345.59 433.45 345.59 426.78C345.59 420.11 351.01 414.69 357.68 414.69C364.34 414.69 369.76 420.11 369.76 426.78Z" id="a2gIUrz8oR"></path><path d="M376.43 361.02C376.43 371.37 368.02 379.77 357.68 379.77C347.33 379.77 338.93 371.37 338.93 361.02C338.93 350.67 347.33 342.27 357.68 342.27C368.02 342.27 376.43 350.67 376.43 361.02Z" id="a8MGwX459D"></path><path d="M386.47 257.16C386.47 273.05 373.57 285.95 357.68 285.95C341.78 285.95 328.88 273.05 328.88 257.16C328.88 241.26 341.78 228.36 357.68 228.36C373.57 228.36 386.47 241.26 386.47 257.16Z" id="dW1AxXYDI"></path><path d="M437.48 469.08C437.48 473.56 433.84 477.2 429.36 477.2C424.88 477.2 421.25 473.56 421.25 469.08C421.25 464.6 424.88 460.96 429.36 460.96C433.84 460.96 437.48 464.6 437.48 469.08Z" id="a3XC5KLPTB"></path><path d="M508.98 469.08C508.98 473.56 505.34 477.2 500.86 477.2C496.38 477.2 492.75 473.56 492.75 469.08C492.75 464.6 496.38 460.96 500.86 460.96C505.34 460.96 508.98 464.6 508.98 469.08Z" id="dlNmCKMfD"></path><path d="M580.65 469.08C580.65 473.56 577.01 477.2 572.53 477.2C568.05 477.2 564.41 473.56 564.41 469.08C564.41 464.6 568.05 460.96 572.53 460.96C577.01 460.96 580.65 464.6 580.65 469.08Z" id="aeyZfhCEQ"></path><path d="M42.49 484.08C42.49 487.58 39.64 490.42 36.14 490.42C32.64 490.42 29.8 487.58 29.8 484.08C29.8 480.58 32.64 477.74 36.14 477.74C39.64 477.74 42.49 480.58 42.49 484.08Z" id="g2sgFKUlA0"></path><path d="M113.9 484.08C113.9 487.58 111.06 490.42 107.56 490.42C104.06 490.42 101.21 487.58 101.21 484.08C101.21 480.58 104.06 477.74 107.56 477.74C111.06 477.74 113.9 480.58 113.9 484.08Z" id="f1Jcu8Vss9"></path><path d="M185.4 484.08C185.4 487.58 182.56 490.42 179.06 490.42C175.56 490.42 172.71 487.58 172.71 484.08C172.71 480.58 175.56 477.74 179.06 477.74C182.56 477.74 185.4 480.58 185.4 484.08Z" id="a3zDDHgCLl"></path><path d="M256.84 484.08C256.84 487.58 254 490.42 250.5 490.42C246.99 490.42 244.15 487.58 244.15 484.08C244.15 480.58 246.99 477.74 250.5 477.74C254 477.74 256.84 480.58 256.84 484.08Z" id="e3ZfHkGnn"></path><path d="M328.62 484.08C328.62 487.58 325.78 490.42 322.28 490.42C318.78 490.42 315.94 487.58 315.94 484.08C315.94 480.58 318.78 477.74 322.28 477.74C325.78 477.74 328.62 480.58 328.62 484.08Z" id="a1Eyomvhvn"></path><path d="M399.8 484.08C399.8 487.58 396.95 490.42 393.45 490.42C389.95 490.42 387.11 487.58 387.11 484.08C387.11 480.58 389.95 477.74 393.45 477.74C396.95 477.74 399.8 480.58 399.8 484.08Z" id="cuNxefbtZ"></path><path d="M471.54 484.08C471.54 487.58 468.7 490.42 465.2 490.42C461.69 490.42 458.85 487.58 458.85 484.08C458.85 480.58 461.69 477.74 465.2 477.74C468.7 477.74 471.54 480.58 471.54 484.08Z" id="bYxPmtGM"></path><path d="M543.04 484.08C543.04 487.58 540.2 490.42 536.7 490.42C533.19 490.42 530.35 487.58 530.35 484.08C530.35 480.58 533.19 477.74 536.7 477.74C540.2 477.74 543.04 480.58 543.04 484.08Z" id="b3X0dYFZI4"></path><path d="M614.94 484.08C614.94 487.58 612.1 490.42 608.6 490.42C605.1 490.42 602.25 487.58 602.25 484.08C602.25 480.58 605.1 477.74 608.6 477.74C612.1 477.74 614.94 480.58 614.94 484.08Z" id="c1f9jeU9Iq"></path></defs><g><g><g><g><use xlink:href="#f371SW2sF2" opacity="1" fill="#f53838" fill-opacity="1"></use></g><g><use xlink:href="#b87ROnEAQK" opacity="1" fill="#f53838" fill-opacity="1"></use></g><g><use xlink:href="#b1LN1HZXTR" opacity="1" fill="#f53838" fill-opacity="1"></use></g><g><use xlink:href="#lEGeZZwVr" opacity="1" fill="#f53838" fill-opacity="1"></use></g><g><use xlink:href="#fAJ4gSYvi" opacity="1" fill="#f53838" fill-opacity="1"></use></g><g><use xlink:href="#irq5YY1KR" opacity="1" fill="#f53838" fill-opacity="1"></use></g><g><use xlink:href="#bTQgIPu4N" opacity="1" fill="#f53838" fill-opacity="1"></use></g><g><use xlink:href="#e2QghZyJQL" opacity="1" fill="#f53838" fill-opacity="1"></use></g><g><use xlink:href="#d1vQTLYJ3F" opacity="1" fill="#f53838" fill-opacity="1"></use></g><g><use xlink:href="#b1ahtI0ew" opacity="1" fill="#f53838" fill-opacity="1"></use></g><g><use xlink:href="#c4mNH6JG0m" opacity="1" fill="#f53838" fill-opacity="1"></use></g><g><use xlink:href="#d6fnefMdSi" opacity="1" fill="#f53838" fill-opacity="1"></use></g><g><use xlink:href="#b1Y5bnQh9t" opacity="1" fill="#f53838" fill-opacity="1"></use></g><g><use xlink:href="#aCh6ZPblp" opacity="1" fill="#f53838" fill-opacity="1"></use></g><g><use xlink:href="#b4Af7kovc" opacity="1" fill="#f53838" fill-opacity="1"></use></g><g><use xlink:href="#a4OEhnQYxL" opacity="1" fill="#f53838" fill-opacity="1"></use></g><g><use xlink:href="#b2FHx0Dcq3" opacity="1" fill="#f53838" fill-opacity="1"></use></g><g><use xlink:href="#a2P6qCPmJC" opacity="1" fill="#f53838" fill-opacity="1"></use></g><g><use xlink:href="#a3zP4pl4Cs" opacity="1" fill="#f53838" fill-opacity="1"></use></g><g><use xlink:href="#e36iroOyxV" opacity="1" fill="#f53838" fill-opacity="1"></use></g><g><use xlink:href="#b1oDM2TsaU" opacity="1" fill="#f53838" fill-opacity="1"></use></g><g><use xlink:href="#f4V2K2Vseu" opacity="1" fill="#f53838" fill-opacity="1"></use></g><g><use xlink:href="#aqrkN6uEQ" opacity="1" fill="#f53838" fill-opacity="1"></use></g><g><use xlink:href="#a1eKt2REVl" opacity="1" fill="#f53838" fill-opacity="1"></use></g><g><use xlink:href="#a6M9594Jp" opacity="1" fill="#f53838" fill-opacity="1"></use></g><g><use xlink:href="#b5EzWhPnY2" opacity="1" fill="#f53838" fill-opacity="1"></use></g><g><use xlink:href="#biSRcmL2u" opacity="1" fill="#f53838" fill-opacity="1"></use></g><g><use xlink:href="#a27L4teNaO" opacity="1" fill="#f53838" fill-opacity="1"></use></g><g><use xlink:href="#b4ExgWuhbH" opacity="1" fill="#f53838" fill-opacity="1"></use></g><g><use xlink:href="#atE1ESyuh" opacity="1" fill="#f53838" fill-opacity="1"></use></g><g><use xlink:href="#a2gIUrz8oR" opacity="1" fill="#f53838" fill-opacity="1"></use></g><g><use xlink:href="#a8MGwX459D" opacity="1" fill="#f53838" fill-opacity="1"></use></g><g><use xlink:href="#dW1AxXYDI" opacity="1" fill="#f53838" fill-opacity="1"></use></g><g><use xlink:href="#a3XC5KLPTB" opacity="1" fill="#f53838" fill-opacity="1"></use></g><g><use xlink:href="#dlNmCKMfD" opacity="1" fill="#f53838" fill-opacity="1"></use></g><g><use xlink:href="#aeyZfhCEQ" opacity="1" fill="#f53838" fill-opacity="1"></use></g><g><use xlink:href="#g2sgFKUlA0" opacity="1" fill="#f53838" fill-opacity="1"></use></g><g><use xlink:href="#f1Jcu8Vss9" opacity="1" fill="#f53838" fill-opacity="1"></use></g><g><use xlink:href="#a3zDDHgCLl" opacity="1" fill="#f53838" fill-opacity="1"></use></g><g><use xlink:href="#e3ZfHkGnn" opacity="1" fill="#f53838" fill-opacity="1"></use></g><g><use xlink:href="#a1Eyomvhvn" opacity="1" fill="#f53838" fill-opacity="1"></use></g><g><use xlink:href="#cuNxefbtZ" opacity="1" fill="#f53838" fill-opacity="1"></use></g><g><use xlink:href="#bYxPmtGM" opacity="1" fill="#f53838" fill-opacity="1"></use></g><g><use xlink:href="#b3X0dYFZI4" opacity="1" fill="#f53838" fill-opacity="1"></use></g><g><use xlink:href="#c1f9jeU9Iq" opacity="1" fill="#f53838" fill-opacity="1"></use></g></g></g></g></svg>